<?xml version="1.0" encoding="UTF-8"?>
<svg id="Layer_1" data-name="Layer 1" xmlns="http://www.w3.org/2000/svg" viewBox="0 0 432.05 144.02">
  <defs>
    <style>
      .cls-1, .cls-2 {
        stroke-width: 0px;
      }

      .cls-2 {
        fill: #fff;
      }
    </style>
  </defs>
  <path class="cls-2" d="M0,144.02C0,96.01,0,48.01,0,0,144.02,0,288.03,0,432.05,0v144.02H0ZM210.16,32.32c0,.22,0,.39,0,.57.16,13.86-.38,27.73.4,41.58.13,2.27.31,4.54.47,6.81.12,1.71.26,3.42.38,5.12-.17-.22-.26-.45-.34-.69-6.06-17.6-12.12-35.2-18.17-52.81-.16-.46-.34-.64-.84-.63-4.27.02-8.55.01-12.82.01-.21,0-.42.02-.65.03v67.4h10.49c0-.22,0-.41,0-.6-.12-13.75.29-27.51-.27-41.26-.12-2.99-.39-5.97-.59-8.96-.07-1.05-.13-2.11-.2-3.17.05,0,.1-.01.14-.02,6.14,18.01,12.27,36.03,18.39,53.98h14.13V32.32h-10.51ZM351.6,86.54c-.05.01-.11.03-.16.04-.1-.25-.2-.5-.29-.76-6.07-17.62-12.13-35.24-18.18-52.86-.17-.5-.39-.65-.91-.65-4.08.02-8.16,0-12.24.02-1.1,0-1.08-.22-1.08,1.08,0,21.7,0,43.4,0,65.11,0,.17.02.35,0,.52-.05.5.15.67.67.66,3.06-.02,6.12-.01,9.18-.01.17,0,.33-.03.55-.06v-.74c0-11.18,0-22.35,0-33.53,0-.3,0-.61-.02-.91-.17-3.59-.32-7.19-.51-10.78-.08-1.49-.23-2.98-.34-4.47-.09-1.26-.16-2.52-.24-3.78.05-.01.11-.03.16-.04.08.23.17.45.25.68,6.03,17.68,12.05,35.35,18.07,53.03.15.43.32.61.81.61,4.25-.02,8.51-.02,12.76,0,.55,0,.69-.16.69-.7-.01-21.98-.01-43.97,0-65.95,0-.56-.13-.75-.72-.74-3.02.03-6.03.01-9.05.02-.21,0-.42.02-.69.04v.69c0,10.83,0,21.66,0,32.49,0,1.47.06,2.95.14,4.42.15,2.81.33,5.62.51,8.43.09,1.45.23,2.89.34,4.34.1,1.27.19,2.54.29,3.8ZM116.66,71.28c.2-.09.36-.16.52-.23,4.47-1.85,7.71-5,9.78-9.35,1.97-4.14,2.36-8.52,1.71-13.01-.67-4.66-2.84-8.51-6.47-11.51-4.05-3.34-8.82-4.79-13.97-4.87-7.4-.12-14.8-.04-22.2-.04-.15,0-.29.02-.45.03v67.38h11.4v-26.78h.76c2.3,0,4.6.03,6.9-.02.61-.01.86.21,1.09.73,3.75,8.54,7.52,17.07,11.28,25.6.16.36.33.52.75.52,3.86-.02,7.73-.01,11.59-.01.15,0,.29-.01.52-.03-4.41-9.51-8.8-18.96-13.2-28.43ZM365.65,99.7c.38,0,.63,0,.89,0,6.27,0,12.54.01,18.81,0,2.36,0,4.71-.2,7.01-.77,6.06-1.51,10.73-4.84,13.54-10.52,1.59-3.21,2.09-6.66,2.08-10.21-.01-8.14.01-16.27-.02-24.41,0-1.51-.1-3.04-.32-4.53-.83-5.46-3.49-9.82-8.03-12.99-3.86-2.69-8.23-3.84-12.85-3.9-6.75-.1-13.5-.03-20.24-.03q-.87,0-.87.88c0,21.87,0,43.74,0,65.62,0,.26,0,.51,0,.87ZM173.96,65.98c0-4.43.05-8.85-.02-13.28-.03-1.96-.15-3.96-.52-5.88-1.24-6.51-4.85-11.28-11.05-13.74-6.2-2.47-12.55-2.43-18.79-.1-4.99,1.86-8.42,5.44-10.33,10.43-1.1,2.87-1.45,5.88-1.46,8.93-.01,9-.03,18.01.02,27.01.01,1.94.15,3.91.51,5.81,1.29,6.69,5.04,11.5,11.47,13.92,5.95,2.24,12.03,2.2,18,.07,5.01-1.78,8.54-5.26,10.55-10.21,1.25-3.08,1.6-6.32,1.61-9.62.01-4.45,0-8.9,0-13.34ZM50.72,99.72v-28.01h27.99v-10.67h-28.13v-18.09h30.52v-10.63h-41.86v67.4h11.48ZM277,14.61c-12.41,33.34-24.83,66.69-37.27,100.1h.66c4.19,0,8.38,0,12.57.01.5,0,.69-.16.86-.62,12.12-32.59,24.26-65.17,36.39-97.76.21-.56.41-1.13.63-1.74h-13.84ZM313.78,32.33h-.88c-8.46,0-16.93,0-25.39-.02-.66,0-.92.21-1.14.81-4.19,11.32-8.42,22.63-12.61,33.95-.17.45-.26.96-.26,1.45-.01,10.11-.01,20.23-.01,30.34v.79h40.26v-10.04h-29.01c-.02-.34-.05-.59-.05-.85,0-6.05,0-12.11,0-18.16,0-.86,0-.86.84-.86,8.05,0,16.1,0,24.15,0h.8v-9.7h-25.75c-.02-.38-.05-.7-.05-1.02,0-3.69,0-7.38,0-11.07,0-1.58,0-3.17,0-4.75,0-.88,0-.88.91-.89.65,0,1.3,0,1.95,0,8.49,0,16.97,0,25.46.01.63,0,.81-.18.8-.8-.03-2.82-.01-5.64-.01-8.46,0-.21,0-.43,0-.74ZM240.42,99.74c.7,0,1.33-.04,1.95.01.48.04.68-.17.84-.59,2.59-6.99,5.16-13.99,7.81-20.96.72-1.89,1.07-3.77,1.06-5.81-.06-9.61-.03-19.23-.03-28.84,0-.27,0-.54,0-.85h.81c3.6,0,7.2,0,10.81,0,.36,0,.57-.06.72-.46.99-2.72,2.02-5.43,3.04-8.14.22-.58.42-1.17.64-1.78h-45.24v10.4h17.6v57.01ZM294.21,102.77c-.29,3.31-.58,6.61-.87,9.9-.02,0-.05,0-.07,0-.39-3.3-.78-6.6-1.17-9.89h-1.72c-.41,3.27-.81,6.52-1.22,9.76-.01,0-.03,0-.04,0-.29-3.25-.58-6.5-.87-9.75h-1.67c.41,3.95.82,7.86,1.23,11.76h2.25c.39-3.29.78-6.54,1.18-9.91.37,3.38.73,6.64,1.1,9.93h2.23c.43-3.92.86-7.83,1.3-11.78h-1.65ZM306,102.79h-1.93v11.75h1.93v-1.41c.76,1.34,1.78,1.8,3.12,1.48,1.34-.31,2.04-1.28,2.14-2.55.1-1.44.11-2.91-.09-4.34-.24-1.71-1.97-2.67-3.59-2.09-.6.22-1.08.76-1.59,1.14v-3.99ZM327.8,105.85c-.06-.36-.07-.66-.15-.95-.43-1.47-1.55-2.07-2.95-2.25-1.79-.23-3.82.5-4.19,2.65-.29,1.68.67,3.26,2.4,3.81.68.21,1.39.34,2.07.55.78.25,1.24.98,1.15,1.76-.09.82-.62,1.36-1.47,1.49-1.36.2-1.95-.18-2.56-1.64h-1.88c.07,1.48.7,2.54,2.05,3.08,1.28.51,2.58.52,3.86,0,1.01-.42,1.66-1.16,1.88-2.24.43-2.14-.67-3.88-2.79-4.42-.65-.17-1.31-.31-1.93-.54-.63-.24-.94-.83-.86-1.45.08-.65.55-1.14,1.21-1.26,1.16-.21,1.76.15,2.3,1.42h1.87ZM303.02,112.17c-.57,0-1.09-.01-1.6,0-.13,0-.3.06-.39.15-.76.73-1.77.92-2.58.48-.7-.38-.94-1.14-.7-2.27h5.41c0-.51,0-.96,0-1.41-.01-2.11-1.1-3.34-3.2-3.63-2.13-.29-3.98.96-4.21,2.92-.1.83,0,1.69-.04,2.53-.12,2.4,1.58,3.9,4.07,3.76,1.71-.1,2.91-1.02,3.25-2.53ZM386.11,112.1c.09,1.3.76,2.02,1.85,2.36,1.25.39,2.53.37,3.79.06,1.36-.33,2.06-1.31,2-2.66-.06-1.5-.83-2.39-2.28-2.63-.85-.14-1.72-.21-2.56-.41-.28-.06-.67-.39-.69-.62-.02-.32.17-.79.43-.97.85-.58,2.51-.16,3.03.66h1.88c-.07-1.18-.75-1.84-1.74-2.16-1.26-.41-2.57-.4-3.84-.03-1.24.36-1.85,1.32-1.76,2.61.09,1.34.85,2.17,2.15,2.37.81.12,1.63.22,2.44.37.74.14,1.02.47,1,1.05-.02.54-.42.95-1.08,1.02-.52.05-1.06.11-1.55-.02-.38-.1-.7-.48-1.04-.73-.12-.09-.24-.26-.37-.27-.54-.03-1.08-.01-1.66-.01ZM328.69,110.09s-.03,0-.04,0c0,.3,0,.61,0,.91,0,2.15,1.03,3.35,3.13,3.68,2.13.33,3.97-.86,4.25-2.84.13-.89.06-1.82.05-2.73-.01-2.13-1.09-3.34-3.2-3.62-2.11-.28-3.84.84-4.18,2.78-.1.59-.02,1.21-.02,1.81ZM377.05,110.12s.04,0,.05,0c0-.32,0-.65,0-.97-.02-2.12-1.02-3.33-3.12-3.62-1.8-.25-3.9.42-4.27,2.8-.14.89-.05,1.82-.05,2.72,0,2.14,1.12,3.39,3.24,3.65,2.09.25,3.78-.85,4.13-2.77.11-.59.02-1.21.02-1.81ZM379.97,114.56c0-1.8,0-3.55,0-5.3,0-.28.02-.57.08-.83.22-.86.83-1.26,1.75-1.17.83.08,1.37.64,1.4,1.51.03.93,0,1.86,0,2.8,0,.99,0,1.98,0,2.98h1.95c0-2.23.05-4.42-.04-6.61-.02-.56-.42-1.18-.8-1.65-.55-.69-1.39-.86-2.24-.79-.98.08-1.67.61-2.17,1.48v-1.32h-1.94v8.9h1.98ZM345.14,105.64c0,1.92-.02,3.76,0,5.6.03,2.03,1.05,3.18,3.07,3.44,2.1.27,4.14-.82,4.18-3.3.02-.95.02-1.91.03-2.86,0-.95,0-1.9,0-2.86h-2.02c0,1.88,0,3.72,0,5.56,0,1.11-.62,1.75-1.65,1.74-1-.01-1.59-.64-1.6-1.72,0-.69,0-1.39,0-2.08,0-1.16,0-2.33,0-3.51h-2ZM360.7,105.57h-3.54v-2.39h-2.01v2.45h-2.4v1.75h2.42c0,.33,0,.59,0,.85.01,1.36-.01,2.73.04,4.09.04,1.03.62,1.86,1.6,2.05,1.25.24,2.55.2,3.82.28v-1.82c-.85,0-1.65,0-2.45,0-.51,0-.96-.2-.98-.74-.05-1.55-.02-3.11-.02-4.74h3.5v-1.79ZM341.1,102.77h-4.89v1.75h2.86c0,.31,0,.55,0,.78,0,2.13,0,4.25,0,6.38,0,1.36.72,2.51,1.89,2.71,1.24.21,2.52.18,3.82.25,0-.42,0-.68,0-.94,0-.27,0-.55,0-.79-.13-.04-.17-.06-.21-.06-.67,0-1.35,0-2.02-.02-1.16-.01-1.46-.31-1.46-1.47,0-2.6,0-5.21,0-7.81v-.78ZM361.89,105.64v1.73h2.68v5.47h-2.94v1.71h7.72v-1.71c-.75,0-1.46-.02-2.17,0-.42.02-.57-.13-.56-.56.02-1.5,0-2.99,0-4.49,0-.71,0-1.42,0-2.16h-4.73ZM365.47,104.17c.78-.02,1.29-.47,1.29-1.17,0-.71-.54-1.19-1.35-1.17-.78.02-1.29.47-1.29,1.17,0,.71.54,1.19,1.35,1.17Z"/>
  <path class="cls-1" d="M210.16,32.32h10.51v67.37h-14.13c-6.12-17.95-12.25-35.97-18.39-53.98-.05,0-.1.01-.14.02.07,1.06.13,2.11.2,3.17.2,2.99.47,5.97.59,8.96.56,13.75.15,27.51.27,41.26,0,.19,0,.38,0,.6h-10.49V32.31c.23-.01.44-.03.65-.03,4.27,0,8.55,0,12.82-.01.51,0,.69.17.84.63,6.05,17.61,12.11,35.21,18.17,52.81.08.24.17.48.34.69-.13-1.71-.26-3.42-.38-5.12-.16-2.27-.34-4.54-.47-6.81-.78-13.85-.23-27.72-.4-41.58,0-.17,0-.34,0-.57Z"/>
  <path class="cls-1" d="M351.6,86.54c-.1-1.27-.19-2.54-.29-3.8-.11-1.45-.25-2.89-.34-4.34-.18-2.81-.36-5.62-.51-8.43-.08-1.47-.14-2.95-.14-4.42-.01-10.83,0-21.66,0-32.49v-.69c.27-.02.48-.04.69-.04,3.02,0,6.03.01,9.05-.02.59,0,.72.18.72.74-.01,21.98-.01,43.97,0,65.95,0,.53-.14.7-.69.7-4.25-.02-8.51-.02-12.76,0-.49,0-.66-.18-.81-.61-6.01-17.68-12.04-35.35-18.07-53.03-.08-.23-.17-.46-.25-.68-.05.01-.11.03-.16.04.08,1.26.15,2.52.24,3.78.11,1.49.26,2.98.34,4.47.19,3.59.34,7.19.51,10.78.01.3.02.61.02.91,0,11.18,0,22.35,0,33.53v.74c-.22.02-.39.05-.55.06-3.06,0-6.12,0-9.18.01-.52,0-.72-.16-.67-.66.02-.17,0-.35,0-.52,0-21.7,0-43.4,0-65.11,0-1.31-.03-1.08,1.08-1.08,4.08,0,8.16,0,12.24-.02.52,0,.74.15.91.65,6.05,17.62,12.12,35.24,18.18,52.86.09.26.19.51.29.76.05-.01.11-.03.16-.04Z"/>
  <path class="cls-1" d="M116.66,71.28c4.4,9.47,8.78,18.92,13.2,28.43-.23.01-.38.03-.52.03-3.86,0-7.73,0-11.59.01-.42,0-.59-.16-.75-.52-3.75-8.54-7.53-17.07-11.28-25.6-.23-.52-.47-.74-1.09-.73-2.3.05-4.6.02-6.9.02h-.76v26.78h-11.4V32.31c.16-.01.31-.03.45-.03,7.4,0,14.8-.08,22.2.04,5.15.08,9.92,1.53,13.97,4.87,3.63,3,5.8,6.84,6.47,11.51.65,4.49.26,8.87-1.71,13.01-2.06,4.35-5.31,7.49-9.78,9.35-.16.07-.31.14-.52.23ZM97,62.76c.72,0,1.39,0,2.05,0,3.29-.04,6.59.04,9.88-.17,3.72-.24,6.72-2.78,7.81-6.29.44-1.4.51-2.85.47-4.3-.15-5.51-4.08-9.45-9.6-9.55-3.38-.06-6.76-.03-10.15-.03-.14,0-.29.03-.46.05v20.29Z"/>
  <path class="cls-1" d="M365.65,99.7c0-.35,0-.61,0-.87,0-21.87,0-43.74,0-65.62q0-.88.87-.88c6.75,0,13.5-.07,20.24.03,4.62.07,9,1.22,12.85,3.9,4.54,3.16,7.2,7.53,8.03,12.99.23,1.49.32,3.02.32,4.53.03,8.14,0,16.27.02,24.41,0,3.55-.49,6.99-2.08,10.21-2.81,5.68-7.48,9.01-13.54,10.52-2.3.57-4.65.76-7.01.77-6.27.02-12.54,0-18.81,0-.26,0-.51,0-.89,0ZM377.05,42.58c0,.31,0,.54,0,.78,0,15.1,0,30.2,0,45.3,0,.09,0,.17,0,.26-.05.42.13.57.55.56,3.16-.05,6.33.02,9.49-.14,5.42-.27,9.43-4.55,9.44-9.99.02-8.64.02-17.27,0-25.91,0-.91-.03-1.83-.2-2.71-.99-5.12-4.98-8.04-10.04-8.19-2.88-.08-5.77-.02-8.66-.02-.17,0-.34.02-.6.04Z"/>
  <path class="cls-1" d="M173.96,65.98c0,4.45,0,8.9,0,13.34,0,3.29-.36,6.53-1.61,9.62-2.01,4.95-5.54,8.43-10.55,10.21-5.97,2.13-12.06,2.16-18-.07-6.42-2.42-10.18-7.23-11.47-13.92-.37-1.9-.5-3.87-.51-5.81-.05-9-.03-18.01-.02-27.01,0-3.05.36-6.05,1.46-8.93,1.91-4.99,5.35-8.57,10.33-10.43,6.23-2.33,12.59-2.37,18.79.1,6.2,2.47,9.81,7.23,11.05,13.74.37,1.92.48,3.92.52,5.88.07,4.42.02,8.85.02,13.28ZM162.38,66.08s.01,0,.02,0c0-4.73,0-9.46,0-14.19,0-.97-.05-1.95-.15-2.92-.39-3.6-2.64-6.25-6.09-7.11-2.22-.55-4.46-.54-6.69.04-2.86.75-4.74,2.57-5.54,5.39-.36,1.27-.53,2.64-.54,3.96-.04,9.74-.03,19.48-.02,29.22,0,.84.05,1.69.14,2.53.41,3.64,2.69,6.29,6.22,7.14,2.23.54,4.48.51,6.69-.1,2.1-.57,3.73-1.8,4.77-3.75.8-1.5,1.18-3.12,1.19-4.81.02-5.14,0-10.28,0-15.42Z"/>
  <path class="cls-1" d="M50.72,99.72h-11.48V32.32h41.86v10.63h-30.52v18.09h28.13v10.67h-27.99v28.01Z"/>
  <path class="cls-1" d="M277,14.61h13.84c-.22.61-.42,1.18-.63,1.74-12.14,32.58-24.27,65.17-36.39,97.76-.17.46-.36.62-.86.62-4.19-.02-8.38-.01-12.57-.01h-.66c12.44-33.41,24.86-66.76,37.27-100.1Z"/>
  <path class="cls-1" d="M313.78,32.33c0,.31,0,.53,0,.74,0,2.82-.02,5.64.01,8.46,0,.62-.17.8-.8.8-8.49-.02-16.97-.01-25.46-.01-.65,0-1.3,0-1.95,0-.91,0-.91,0-.91.89,0,1.58,0,3.17,0,4.75,0,3.69,0,7.38,0,11.07,0,.32.03.64.05,1.02h25.75v9.7h-.8c-8.05,0-16.1,0-24.15,0-.84,0-.84,0-.84.86,0,6.05,0,12.11,0,18.16,0,.26.03.51.05.85h29.01v10.04h-40.26v-.79c0-10.11,0-20.23.01-30.34,0-.48.09-.99.26-1.45,4.2-11.32,8.42-22.63,12.61-33.95.22-.6.48-.81,1.14-.81,8.46.03,16.93.02,25.39.02h.88Z"/>
  <path class="cls-1" d="M240.42,99.74v-57.01h-17.6v-10.4h45.24c-.22.61-.42,1.19-.64,1.78-1.01,2.71-2.04,5.42-3.04,8.14-.15.4-.36.46-.72.46-3.6,0-7.2,0-10.81,0h-.81c0,.31,0,.58,0,.85,0,9.61-.03,19.23.03,28.84.01,2.03-.33,3.91-1.06,5.81-2.65,6.97-5.22,13.97-7.81,20.96-.15.42-.35.62-.84.59-.62-.05-1.25-.01-1.95-.01Z"/>
  <path class="cls-1" d="M294.21,102.77h1.65c-.43,3.95-.87,7.86-1.3,11.78h-2.23c-.36-3.29-.72-6.55-1.1-9.93-.4,3.37-.78,6.62-1.18,9.91h-2.25c-.41-3.9-.82-7.81-1.23-11.76h1.67c.29,3.25.58,6.5.87,9.75.01,0,.03,0,.04,0,.4-3.24.81-6.48,1.22-9.76h1.72c.39,3.29.78,6.59,1.17,9.89.02,0,.05,0,.07,0,.29-3.29.58-6.59.87-9.9Z"/>
  <path class="cls-1" d="M306,102.79v3.99c.51-.38.99-.93,1.59-1.14,1.62-.59,3.34.38,3.59,2.09.2,1.42.19,2.9.09,4.34-.09,1.27-.79,2.24-2.14,2.55-1.34.31-2.36-.14-3.12-1.48v1.41h-1.93v-11.75h1.93ZM309.39,110.13h-.05c0-.44,0-.87,0-1.3,0-.13-.04-.26-.07-.38-.16-.76-.59-1.13-1.4-1.2-.85-.07-1.62.26-1.69.97-.12,1.23-.12,2.5,0,3.73.07.72.84,1.05,1.69.98.81-.07,1.27-.43,1.4-1.19.09-.53.09-1.08.13-1.62Z"/>
  <path class="cls-1" d="M327.8,105.85h-1.87c-.54-1.27-1.14-1.64-2.3-1.42-.66.12-1.14.61-1.21,1.26-.07.62.23,1.21.86,1.45.62.23,1.28.37,1.93.54,2.12.54,3.22,2.27,2.79,4.42-.22,1.08-.87,1.82-1.88,2.24-1.28.53-2.58.52-3.86,0-1.36-.54-1.98-1.59-2.05-3.08h1.88c.61,1.46,1.2,1.84,2.56,1.64.85-.12,1.38-.67,1.47-1.49.08-.78-.37-1.51-1.15-1.76-.68-.21-1.39-.34-2.07-.55-1.73-.55-2.69-2.13-2.4-3.81.37-2.15,2.4-2.88,4.19-2.65,1.4.18,2.52.79,2.95,2.25.08.28.1.59.15.95Z"/>
  <path class="cls-1" d="M303.02,112.17c-.33,1.51-1.54,2.43-3.25,2.53-2.49.14-4.19-1.35-4.07-3.76.04-.84-.06-1.7.04-2.53.23-1.96,2.08-3.21,4.21-2.92,2.09.28,3.18,1.52,3.2,3.63,0,.45,0,.9,0,1.41h-5.41c-.24,1.14,0,1.89.7,2.27.81.44,1.82.25,2.58-.48.09-.09.26-.15.39-.15.51-.02,1.03,0,1.6,0ZM301.2,109.22c.04-.81-.04-1.55-.8-1.96-.69-.37-1.44-.36-2.09.09-.64.44-.73,1.12-.63,1.87h3.52Z"/>
  <path class="cls-1" d="M386.11,112.1c.58,0,1.12-.02,1.66.01.13,0,.25.17.37.27.34.26.65.63,1.04.73.49.13,1.04.07,1.55.02.66-.06,1.05-.47,1.08-1.02.03-.59-.25-.92-1-1.05-.81-.15-1.62-.24-2.44-.37-1.31-.2-2.06-1.03-2.15-2.37-.09-1.3.52-2.25,1.76-2.61,1.27-.37,2.57-.38,3.84.03.99.32,1.67.98,1.74,2.16h-1.88c-.52-.82-2.18-1.25-3.03-.66-.26.18-.45.65-.43.97.02.23.41.56.69.62.84.19,1.71.27,2.56.41,1.45.24,2.21,1.13,2.28,2.63.06,1.35-.65,2.33-2,2.66-1.26.31-2.54.33-3.79-.06-1.09-.34-1.76-1.06-1.85-2.36Z"/>
  <path class="cls-1" d="M328.69,110.09c0-.61-.09-1.23.02-1.81.34-1.94,2.07-3.06,4.18-2.78,2.11.28,3.18,1.49,3.2,3.62,0,.91.08,1.83-.05,2.73-.28,1.98-2.12,3.17-4.25,2.84-2.11-.33-3.13-1.53-3.13-3.68,0-.3,0-.61,0-.91.01,0,.03,0,.04,0ZM330.59,110.04s.03,0,.05,0c0,.46,0,.91,0,1.37,0,.11.04.21.07.32.21.83.75,1.23,1.67,1.22.9,0,1.53-.38,1.61-1.19.1-1.11.1-2.25,0-3.36-.08-.79-.74-1.17-1.63-1.16-.9,0-1.46.38-1.62,1.19-.11.53-.1,1.07-.14,1.61Z"/>
  <path class="cls-1" d="M377.05,110.12c0,.61.09,1.23-.02,1.81-.35,1.92-2.04,3.02-4.13,2.77-2.12-.26-3.24-1.52-3.24-3.65,0-.91-.09-1.84.05-2.72.37-2.37,2.47-3.05,4.27-2.8,2.09.29,3.1,1.5,3.12,3.62,0,.32,0,.65,0,.97-.02,0-.04,0-.05,0ZM375.17,110.1c-.05-.58-.05-1.17-.17-1.74-.16-.75-.74-1.12-1.61-1.13-.86,0-1.55.36-1.62,1.1-.11,1.15-.11,2.33,0,3.49.07.76.72,1.12,1.59,1.13.9,0,1.48-.37,1.64-1.16.11-.55.11-1.12.16-1.68Z"/>
  <path class="cls-1" d="M379.97,114.56h-1.98v-8.9h1.94v1.32c.5-.87,1.19-1.41,2.17-1.48.85-.07,1.69.11,2.24.79.38.47.77,1.08.8,1.65.09,2.18.04,4.37.04,6.61h-1.95c0-1,0-1.99,0-2.98,0-.93.02-1.87,0-2.8-.02-.87-.56-1.43-1.4-1.51-.92-.09-1.54.31-1.75,1.17-.07.27-.08.56-.08.83,0,1.75,0,3.5,0,5.3Z"/>
  <path class="cls-1" d="M345.14,105.64h2c0,1.19,0,2.35,0,3.51,0,.69,0,1.39,0,2.08.02,1.08.61,1.71,1.6,1.72,1.02.01,1.64-.63,1.65-1.74.01-1.84,0-3.68,0-5.56h2.02c0,.97,0,1.91,0,2.86,0,.95-.01,1.91-.03,2.86-.04,2.49-2.08,3.57-4.18,3.3-2.02-.25-3.04-1.41-3.07-3.44-.03-1.84,0-3.68,0-5.6Z"/>
  <path class="cls-1" d="M360.7,105.57v1.79h-3.5c0,1.63-.03,3.19.02,4.74.02.54.47.74.98.74.8,0,1.6,0,2.45,0v1.82c-1.27-.08-2.57-.04-3.82-.28-.98-.19-1.56-1.02-1.6-2.05-.06-1.36-.03-2.73-.04-4.09,0-.26,0-.51,0-.85h-2.42v-1.75h2.4v-2.45h2.01v2.39h3.54Z"/>
  <path class="cls-1" d="M341.1,102.77v.78c0,2.6,0,5.21,0,7.81,0,1.17.3,1.46,1.46,1.47.67,0,1.35,0,2.02.02.04,0,.08.02.21.06,0,.25,0,.52,0,.79,0,.26,0,.52,0,.94-1.3-.08-2.58-.04-3.82-.25-1.18-.2-1.89-1.36-1.89-2.71-.01-2.13,0-4.25,0-6.38,0-.24,0-.47,0-.78h-2.86v-1.75h4.89Z"/>
  <path class="cls-1" d="M361.89,105.64h4.73c0,.74,0,1.45,0,2.16,0,1.5.01,2.99,0,4.49,0,.43.14.57.56.56.71-.03,1.42,0,2.17,0v1.71h-7.72v-1.71h2.94v-5.47h-2.68v-1.73Z"/>
  <path class="cls-1" d="M365.47,104.17c-.81.02-1.35-.46-1.35-1.17,0-.7.5-1.15,1.29-1.17.81-.02,1.35.46,1.35,1.17,0,.7-.5,1.15-1.29,1.17Z"/>
  <path class="cls-2" d="M97,62.76v-20.29c.17-.02.31-.05.46-.05,3.38,0,6.77-.03,10.15.03,5.52.09,9.45,4.04,9.6,9.55.04,1.46-.03,2.9-.47,4.3-1.09,3.51-4.08,6.05-7.81,6.29-3.28.21-6.58.13-9.88.17-.67,0-1.34,0-2.05,0Z"/>
  <path class="cls-2" d="M377.05,42.58c.26-.02.43-.04.6-.04,2.89,0,5.77-.07,8.66.02,5.06.15,9.05,3.06,10.04,8.19.17.88.2,1.81.2,2.71.01,8.64.01,17.27,0,25.91-.01,5.44-4.02,9.72-9.44,9.99-3.16.16-6.33.09-9.49.14-.42,0-.61-.14-.55-.56.01-.09,0-.17,0-.26,0-15.1,0-30.2,0-45.3,0-.24,0-.47,0-.78Z"/>
  <path class="cls-2" d="M162.38,66.08c0,5.14.01,10.28,0,15.42,0,1.69-.39,3.31-1.19,4.81-1.04,1.94-2.66,3.17-4.77,3.75-2.21.61-4.46.64-6.69.1-3.52-.85-5.81-3.5-6.22-7.14-.09-.84-.14-1.68-.14-2.53,0-9.74-.03-19.48.02-29.22,0-1.33.18-2.69.54-3.96.79-2.82,2.68-4.64,5.54-5.39,2.22-.58,4.47-.6,6.69-.04,3.45.86,5.7,3.51,6.09,7.11.11.97.15,1.94.15,2.92.02,4.73,0,9.46,0,14.19,0,0-.01,0-.02,0Z"/>
  <path class="cls-2" d="M309.39,110.13c-.04.54-.04,1.08-.13,1.62-.13.76-.58,1.12-1.4,1.19-.85.07-1.62-.27-1.69-.98-.12-1.24-.12-2.5,0-3.73.07-.71.84-1.04,1.69-.97.81.07,1.24.43,1.4,1.2.03.13.06.26.07.38,0,.43,0,.87,0,1.3h.05Z"/>
  <path class="cls-2" d="M301.2,109.22h-3.52c-.1-.75-.01-1.43.63-1.87.66-.45,1.4-.46,2.09-.09.76.41.83,1.15.8,1.96Z"/>
  <path class="cls-2" d="M330.59,110.04c.04-.54.04-1.09.14-1.61.16-.81.72-1.18,1.62-1.19.9,0,1.56.37,1.63,1.16.11,1.11.11,2.25,0,3.36-.07.81-.71,1.18-1.61,1.19-.92,0-1.47-.39-1.67-1.22-.03-.1-.07-.21-.07-.32,0-.46,0-.91,0-1.37-.02,0-.03,0-.05,0Z"/>
  <path class="cls-2" d="M375.17,110.1c-.05.57-.05,1.14-.16,1.68-.16.79-.75,1.17-1.64,1.16-.87,0-1.53-.37-1.59-1.13-.1-1.15-.1-2.33,0-3.49.07-.74.75-1.1,1.62-1.1.87,0,1.45.37,1.61,1.13.12.57.11,1.16.17,1.74Z"/>
</svg>